<svg xmlns="http://www.w3.org/2000/svg" xmlns:xlink="http://www.w3.org/1999/xlink" width="100%" zoomAndPan="magnify" viewBox="0 0 375 374.999991" height="100%" preserveAspectRatio="xMidYMid meet" version="1.0"><defs><g/></defs><g fill="#000000" fill-opacity="1"><g transform="translate(105.504394, 233.925213)"><g><path d="M 59.730469 -69.484375 C 41.445312 -73.664062 24.554688 -79.585938 24.554688 -99.4375 C 24.554688 -111.28125 30.476562 -121.378906 47.019531 -121.378906 C 66.523438 -121.378906 84.460938 -107.449219 81.675781 -83.9375 L 97.171875 -108.492188 C 87.945312 -117.375 74.707031 -124.339844 54.855469 -124.339844 C 27.515625 -124.339844 10.449219 -111.105469 10.449219 -90.90625 C 10.449219 -76.796875 18.632812 -60.429688 51.546875 -52.59375 C 72.269531 -47.714844 85.503906 -43.015625 85.503906 -25.425781 C 85.503906 -14.105469 80.105469 -0.695312 60.082031 -0.695312 C 39.355469 -0.695312 19.503906 -14.628906 22.117188 -38.136719 L 6.964844 -13.933594 C 16.371094 -4.875 32.042969 2.4375 52.417969 2.4375 C 83.066406 2.4375 99.261719 -14.28125 99.261719 -33.957031 C 99.261719 -46.148438 93.167969 -61.820312 59.730469 -69.484375 Z M 59.730469 -69.484375 "/></g></g></g><g fill="#000000" fill-opacity="1"><g transform="translate(146.137188, 277.494575)"><g><path d="M 115.726562 -18.644531 L 114.550781 -19.484375 C 107.328125 -10.582031 92.714844 -5.375 80.117188 -5.375 C 50.390625 -5.375 26.371094 -33.59375 26.371094 -68.527344 C 26.371094 -99.9375 44.847656 -116.398438 67.351562 -116.398438 C 93.050781 -116.398438 105.480469 -95.066406 96.410156 -72.894531 L 96.914062 -72.726562 L 118.246094 -102.289062 C 110.519531 -111.695312 96.914062 -119.925781 75.582031 -119.925781 C 40.984375 -119.925781 7.558594 -97.585938 7.558594 -58.789062 C 7.558594 -22.675781 36.449219 2.351562 71.886719 2.351562 C 93.722656 2.351562 108.503906 -7.222656 115.726562 -18.644531 Z M 115.726562 -18.644531 "/></g></g></g></svg>