<svg xmlns="http://www.w3.org/2000/svg" xmlns:xlink="http://www.w3.org/1999/xlink" width="500" zoomAndPan="magnify" viewBox="0 0 375 374.999991" height="500" preserveAspectRatio="xMidYMid meet" version="1.0"><defs><g/></defs><g fill="#ffffff" fill-opacity="1"><g transform="translate(109.959028, 218.673197)"><g><path d="M 8.882812 0 L 10.449219 0 L 10.449219 -0.175781 C 10.449219 -7.835938 11.84375 -13.234375 35.351562 -4.179688 C 57.46875 4.179688 88.816406 2.089844 103.621094 -12.714844 C 110.585938 -19.679688 115.808594 -32.21875 115.808594 -42.320312 C 115.808594 -72.96875 91.253906 -78.714844 62.695312 -96.304688 C 45.976562 -106.578125 37.964844 -114.765625 37.964844 -126.605469 C 37.964844 -139.667969 44.410156 -149.769531 64.785156 -149.769531 C 72.792969 -149.769531 80.28125 -147.679688 86.378906 -144.195312 C 102.050781 -134.09375 102.921875 -105.1875 102.921875 -105.1875 L 104.488281 -105.1875 L 104.488281 -146.460938 L 102.921875 -146.460938 L 102.921875 -145.761719 C 102.226562 -139.144531 88.46875 -144.894531 82.546875 -147.851562 C 77.148438 -150.464844 71.054688 -151.335938 64.785156 -151.335938 C 43.886719 -151.335938 23.683594 -140.015625 15.671875 -121.90625 C 6.792969 -102.050781 15.152344 -89.6875 41.273438 -70.183594 C 60.257812 -56.078125 96.480469 -44.410156 95.78125 -24.902344 C 95.261719 -11.84375 85.855469 -0.695312 60.605469 -0.695312 C 35.003906 -0.695312 10.449219 -23.335938 10.449219 -45.800781 L 10.449219 -49.808594 L 8.882812 -49.808594 Z M 8.882812 0 "/></g></g></g><g fill="#ffffff" fill-opacity="1"><g transform="translate(141.682538, 263.708464)"><g><path d="M 81.96875 0 C 90.535156 0 98.933594 -1.511719 106.660156 -4.367188 C 121.945312 -8.902344 129.335938 -8.230469 130.007812 -1.511719 L 131.519531 -1.511719 L 131.519531 -51.230469 L 130.007812 -51.230469 L 130.007812 -48.878906 C 129.503906 -19.988281 110.1875 -1.511719 81.96875 -1.511719 C 71.554688 -1.511719 42.832031 -8.902344 42.664062 -73.570312 C 42.832031 -138.238281 71.554688 -145.628906 81.96875 -145.628906 C 105.988281 -145.628906 129 -130.679688 130.007812 -105.988281 L 131.519531 -105.988281 L 131.519531 -145.628906 L 130.007812 -145.628906 C 129.335938 -139.246094 122.617188 -138.070312 106.660156 -142.773438 C 98.933594 -145.628906 90.535156 -147.140625 81.96875 -147.140625 C 62.316406 -147.140625 43.839844 -139.414062 30.066406 -125.640625 L 29.5625 -125.136719 C 17.46875 -112.875 9.574219 -96.246094 8.398438 -77.9375 L 8.398438 -69.539062 C 10.582031 -30.570312 43 0 81.96875 0 Z M 81.96875 0 "/></g></g></g></svg>