<svg xmlns="http://www.w3.org/2000/svg" xmlns:xlink="http://www.w3.org/1999/xlink" viewBox="0,0,256,256" width="64px" height="64px"><g fill="#ffffff" fill-rule="nonzero" stroke="none" stroke-width="1" stroke-linecap="butt" stroke-linejoin="miter" stroke-miterlimit="10" stroke-dasharray="" stroke-dashoffset="0" font-family="none" font-weight="none" font-size="none" text-anchor="none" style="mix-blend-mode: normal"><g transform="scale(4,4)"><path d="M14.63867,10c-3.65436,0 -6.63867,2.98432 -6.63867,6.63867v22.72266c0,3.39366 2.6076,6.10285 5.90039,6.48828c-0.48041,3.26092 -1.73817,6.59363 -4.43555,8.30664c-0.37476,0.23858 -0.54722,0.69578 -0.42338,1.12243c0.12384,0.42665 0.51428,0.72047 0.95854,0.72132c6.78205,0 10.70812,-2.98749 12.73242,-6.36133c2.02431,-3.37384 2.26758,-7.02756 2.26758,-8.63867c0.0051,-0.36064 -0.18438,-0.69608 -0.49587,-0.87789c-0.3115,-0.18181 -0.69676,-0.18181 -1.00825,0c-0.3115,0.18181 -0.50097,0.51725 -0.49587,0.87789c0,1.38889 -0.25673,4.73517 -1.98242,7.61133c-1.41487,2.35812 -3.84532,4.38911 -8.0625,5.07422c2.00107,-2.43876 2.90908,-5.67362 3.18359,-8.60937c0.02644,-0.28555 -0.07098,-0.5687 -0.26749,-0.77755c-0.19652,-0.20885 -0.47323,-0.32328 -0.75985,-0.31425l-0.47656,0.01563c-2.57178,-0.00214 -4.63477,-2.06519 -4.63477,-4.63867v-22.72266c0,-2.57364 2.06503,-4.63867 4.63867,-4.63867h34.72266c2.57364,0 4.63867,2.06503 4.63867,4.63867v22.72266c0,2.57364 -2.06503,4.63867 -4.63867,4.63867h-21.36133c-0.36064,-0.0051 -0.69608,0.18438 -0.87789,0.49587c-0.18181,0.3115 -0.18181,0.69676 0,1.00825c0.18181,0.3115 0.51725,0.50097 0.87789,0.49587h21.36133c3.65436,0 6.63867,-2.98432 6.63867,-6.63867v-22.72266c0,-3.65436 -2.98432,-6.63867 -6.63867,-6.63867z"></path></g></g><g fill="#ffffff" fill-rule="nonzero" stroke="none" stroke-width="1" stroke-linecap="butt" stroke-linejoin="miter" stroke-miterlimit="10" stroke-dasharray="" stroke-dashoffset="0" font-family="none" font-weight="none" font-size="none" text-anchor="none" style="mix-blend-mode: normal"><g><path d="M82.25,88.765v28.44h-3.58v-28.44zM89.12,90.955h3.44v5.12h3.18v2.79h-3.18v13.11c0,0.83333 0.13667,1.46333 0.41,1.89c0.27333,0.42667 0.74333,0.64 1.41,0.64v0c0.45333,0 0.91333,-0.07667 1.38,-0.23v0l-0.04,2.93c-0.78,0.26 -1.58,0.39 -2.4,0.39v0c-1.36667,0 -2.40667,-0.48667 -3.12,-1.46c-0.72,-0.98 -1.08,-2.36 -1.08,-4.14v0v-13.13h-3.22v-2.79h3.22zM102.21,87.205v2.17l-0.41,7.19h-2.52l0.02,-9.36zM115.53,111.795v0c0,-0.74 -0.28,-1.37667 -0.84,-1.91c-0.56,-0.53333 -1.64,-1.16 -3.24,-1.88v0c-1.86667,-0.76667 -3.18,-1.42333 -3.94,-1.97c-0.76,-0.54667 -1.33,-1.17 -1.71,-1.87c-0.37333,-0.69333 -0.56,-1.52333 -0.56,-2.49v0c0,-1.72 0.62667,-3.14667 1.88,-4.28c1.25333,-1.14 2.85667,-1.71 4.81,-1.71v0c2.06,0 3.71667,0.59667 4.97,1.79c1.24667,1.2 1.87,2.73667 1.87,4.61v0h-3.44c0,-0.94667 -0.31667,-1.75667 -0.95,-2.43c-0.64,-0.66667 -1.45667,-1 -2.45,-1v0c-1.01333,0 -1.81,0.26333 -2.39,0.79c-0.58,0.52667 -0.87,1.23333 -0.87,2.12v0c0,0.7 0.21333,1.26333 0.64,1.69c0.42,0.43333 1.43667,1 3.05,1.7v0c2.56667,1.00667 4.31333,1.98667 5.24,2.94c0.92667,0.96 1.39,2.17667 1.39,3.65v0c0,1.83333 -0.63333,3.3 -1.9,4.4c-1.26,1.1 -2.95333,1.65 -5.08,1.65v0c-2.2,0 -3.98333,-0.63 -5.35,-1.89c-1.36667,-1.26667 -2.05,-2.87 -2.05,-4.81v0h3.48c0.04,1.17333 0.39667,2.09333 1.07,2.76c0.68,0.66 1.63,0.99 2.85,0.99v0c1.14667,0 2.02,-0.25667 2.62,-0.77c0.6,-0.51333 0.9,-1.20667 0.9,-2.08zM132.66,96.075h3.24l0.08,1.95c1.28667,-1.56 2.98667,-2.34 5.1,-2.34v0c2.35333,0 4,1.02 4.94,3.06v0c1.32667,-2.04 3.17333,-3.06 5.54,-3.06v0c3.89333,0 5.88667,2.42667 5.98,7.28v0v14.24h-3.44v-13.91c0,-1.53333 -0.27333,-2.67333 -0.82,-3.42c-0.54667,-0.75333 -1.47,-1.13 -2.77,-1.13v0c-1.04,0 -1.88667,0.40333 -2.54,1.21c-0.65333,0.80667 -1.03,1.83667 -1.13,3.09v0v14.16h-3.48v-14.06c-0.04,-2.93333 -1.23,-4.4 -3.57,-4.4v0c-1.74667,0 -2.98,0.87333 -3.7,2.62v0v15.84h-3.43zM170.29,117.595v0c-2.62667,0 -4.64333,-0.78333 -6.05,-2.35c-1.40667,-1.57333 -2.12333,-3.87667 -2.15,-6.91v0v-2.56c0,-3.14667 0.68667,-5.61667 2.06,-7.41c1.37333,-1.78667 3.29,-2.68 5.75,-2.68v0c2.47333,0 4.32333,0.78667 5.55,2.36c1.22667,1.57333 1.85333,4.02667 1.88,7.36v0v2.27h-11.8v0.49c0,2.26667 0.42667,3.91333 1.28,4.94c0.85333,1.02667 2.08,1.54 3.68,1.54v0c1.01333,0 1.90667,-0.19 2.68,-0.57c0.78,-0.38667 1.50667,-0.99667 2.18,-1.83v0l1.8,2.19c-1.5,2.10667 -3.78667,3.16 -6.86,3.16zM169.9,98.655v0c-1.43333,0 -2.49333,0.49 -3.18,1.47c-0.69333,0.98 -1.08333,2.50667 -1.17,4.58v0h8.32v-0.47c-0.09333,-2.00667 -0.45667,-3.44 -1.09,-4.3c-0.62667,-0.85333 -1.58667,-1.28 -2.88,-1.28z"></path></g></g></svg>